<svg id="clock" xmlns="http://www.w3.org/2000/svg" width="34.435" height="34.435" viewBox="0 0 34.435 34.435">
  <g id="Group_40" data-name="Group 40">
    <g id="Group_39" data-name="Group 39">
      <path id="Path_10" data-name="Path 10" d="M29.392,5.043A17.217,17.217,0,0,0,5.043,29.392,17.217,17.217,0,0,0,29.392,5.043ZM17.217,32.4A15.18,15.18,0,1,1,32.4,17.217,15.2,15.2,0,0,1,17.217,32.4Z" transform="translate(0 0)" fill="#082032"/>
    </g>
  </g>
  <g id="Group_42" data-name="Group 42" transform="translate(3.379 3.379)">
    <g id="Group_41" data-name="Group 41">
      <path id="Path_11" data-name="Path 11" d="M64.085,50.248h-.141l-.047,0A13.853,13.853,0,0,0,50.248,64.024c0,.005,0,.01,0,.016s0,.006,0,.009,0,.025,0,.037A13.838,13.838,0,1,0,64.085,50.248ZM65.1,75.842V74.55a1.019,1.019,0,1,0-2.038,0v1.291A11.819,11.819,0,0,1,52.325,65.058h1.108a1.019,1.019,0,0,0,0-2.038h-1.1A11.82,11.82,0,0,1,62.925,52.343v1.045a1.019,1.019,0,1,0,2.038,0V52.318A11.82,11.82,0,0,1,75.824,62.88H74.6a1.019,1.019,0,1,0,0,2.038h1.26A11.819,11.819,0,0,1,65.1,75.842Z" transform="translate(-50.247 -50.248)" fill="#082032"/>
    </g>
  </g>
  <g id="Group_44" data-name="Group 44" transform="translate(10.274 10.274)">
    <g id="Group_43" data-name="Group 43">
      <path id="Path_12" data-name="Path 12" d="M163.825,155.578a1.018,1.018,0,0,0-1.441,0l-2.683,2.683-5.2-5.2a1.019,1.019,0,0,0-1.441,1.441l5.925,5.925a1.019,1.019,0,0,0,1.441,0l3.4-3.4A1.019,1.019,0,0,0,163.825,155.578Z" transform="translate(-152.758 -152.759)" fill="#082032"/>
    </g>
  </g>
</svg>
