<svg id="dog" xmlns="http://www.w3.org/2000/svg" width="40.329" height="32.767" viewBox="0 0 40.329 32.767">
  <path id="Path_9" data-name="Path 9" d="M36.826,53.048C35.009,50.745,32.283,48,29.617,48c-.809,0-1.624.554-2.725,1.59A22.319,22.319,0,0,0,20.164,48a22.316,22.316,0,0,0-6.727,1.59c-1.1-1.036-1.916-1.59-2.725-1.59C8.046,48,5.32,50.745,3.5,53.048,2.148,54.764,0,57.99,0,59.343c0,2.54.082,3.68,2.142,6.427,1.573,2.1,1.739,5.151,2.794,6.81A2.553,2.553,0,0,0,7.867,73.8c1.2-.3,1.972-1.307,2.315-3a5.482,5.482,0,0,1,1.194,3.533c.088,2.374,4.151,6.437,8.787,6.437s8.7-4.058,8.787-6.436a5.456,5.456,0,0,1,1.193-3.538c.352,1.736,1.262,3.1,3.039,3.1,3.332,0,2.776-5.153,5-8.121,2.06-2.747,2.142-3.887,2.142-6.427,0-1.352-2.148-4.579-3.5-6.295ZM20.164,71.315c-.656,0-1.433-.991-1.754-1.616a5.74,5.74,0,0,1,3.508,0C21.6,70.325,20.821,71.315,20.164,71.315Zm0,5.038a6.3,6.3,0,0,0,2.988,1.13,6.232,6.232,0,0,1-5.976,0A6.3,6.3,0,0,0,20.164,76.353Zm16.006-12.1c-1.984,2.646-2.289,6.478-3.009,7.111-.45-.041-.616-1.415-.656-1.865-.207-2.323.263-5.643.263-7.64,0-3.409-2.545-8.539-2.654-8.755a1.26,1.26,0,0,0-2.254,1.127c.664,1.328,2.388,5.288,2.388,7.628,0,1.315-.24,3.418-.3,5.438-.681.587-3.48,3.2-3.48,6.535,0,1.562-4.383,1.567-5.188.042a1.315,1.315,0,0,0-.131-.2,5.58,5.58,0,0,0,3.428-4.253c0-3.383-8.822-3.383-8.822,0a5.573,5.573,0,0,0,3.428,4.253,1.314,1.314,0,0,0-.131.2c-.808,1.529-5.188,1.518-5.188-.042,0-3.333-2.8-5.948-3.48-6.535-.058-1.946-.3-4.155-.3-5.438,0-2.335,1.724-6.3,2.388-7.628a1.26,1.26,0,0,0-2.254-1.127c-.108.217-2.654,5.346-2.654,8.755,0,2,.469,5.319.263,7.64-.04.45-.206,1.824-.656,1.865-.728-.64-1.018-4.456-3.009-7.111C2.538,62.1,2.521,61.507,2.52,59.411a20.43,20.43,0,0,1,3.137-5.023c1.894-2.348,3.728-3.778,4.941-3.864a10.805,10.805,0,0,1,1.743,1.517,1.261,1.261,0,0,0,1.744.036,19.284,19.284,0,0,1,6.078-1.558,19.284,19.284,0,0,1,6.078,1.558,1.261,1.261,0,0,0,1.744-.036,9.248,9.248,0,0,1,1.743-1.517c1.214.086,3.047,1.516,4.941,3.864a20.43,20.43,0,0,1,3.137,5.023C37.808,61.507,37.791,62.1,36.17,64.258Z" transform="translate(0 -48)" fill="#082032"/>
  <circle id="Ellipse_7" data-name="Ellipse 7" cx="1.613" cy="1.613" r="1.613" transform="translate(12.367 11.259)" fill="#082032"/>
  <circle id="Ellipse_8" data-name="Ellipse 8" cx="1.613" cy="1.613" r="1.613" transform="translate(24.734 11.259)" fill="#082032"/>
</svg>
