<svg xmlns="http://www.w3.org/2000/svg" width="28.414" height="19.782" viewBox="0 0 28.414 19.782">
  <g id="Group_58" data-name="Group 58" transform="translate(0.5 0.5)">
    <path id="Path_41" data-name="Path 41" d="M25,80.609H2.409A2.412,2.412,0,0,0,0,83.018V96.982a2.412,2.412,0,0,0,2.409,2.409H25a2.412,2.412,0,0,0,2.409-2.409V83.018A2.412,2.412,0,0,0,25,80.609Zm-.314,1.606-.322.268-9.706,8.082a1.494,1.494,0,0,1-1.912,0L3.046,82.483l-.322-.268ZM1.606,83.375,9.514,89.96,1.606,95.223ZM25,97.785H2.409a.8.8,0,0,1-.787-.643l9.18-6.109.921.767a3.1,3.1,0,0,0,3.968,0l.921-.767,9.18,6.109A.8.8,0,0,1,25,97.785Zm.8-2.562L17.9,89.96l7.908-6.585Z" transform="translate(0 -80.609)" fill="#082032" stroke="#082032" stroke-width="1"/>
  </g>
</svg>
