<svg id="Group_28" data-name="Group 28" xmlns="http://www.w3.org/2000/svg" width="32.997" height="51.243" viewBox="0 0 32.997 51.243">
  <g id="Group_27" data-name="Group 27">
    <path id="Path_4" data-name="Path 4" d="M128.459,42.817a4.945,4.945,0,0,0-2.435-3.332,5.069,5.069,0,0,0,.644-.609,4.889,4.889,0,0,0,1.183-3.994,12.449,12.449,0,0,0-2.952-6.308,12.956,12.956,0,0,0-4.238-3.183,11.284,11.284,0,0,0,3.194-7.85,11.56,11.56,0,0,0-8.583-11.053,4.261,4.261,0,0,0,1.042-2.8A3.746,3.746,0,0,0,112.522,0h0A3.5,3.5,0,0,0,110.3.752a2.7,2.7,0,0,0-1.013,2.121,1.029,1.029,0,0,0,2.057,0,.733.733,0,0,1,.282-.59,1.419,1.419,0,0,1,.9-.281h0a1.714,1.714,0,0,1,1.735,1.689,2.315,2.315,0,0,1-.711,1.67,2.444,2.444,0,0,1-1.715.692h0c-.025,0-.05,0-.075,0A11.653,11.653,0,0,0,100.252,17.54a11.283,11.283,0,0,0,3.194,7.85,12.955,12.955,0,0,0-4.238,3.183,12.451,12.451,0,0,0-2.952,6.308,4.89,4.89,0,0,0,1.183,3.994,5.061,5.061,0,0,0,.644.609,4.945,4.945,0,0,0-2.435,3.332,4.84,4.84,0,0,0,.986,3.985l2.2,2.739a4.678,4.678,0,0,0,5.885,1.111,4.412,4.412,0,0,0,1.954-5.516l-1.336-3.226a4.878,4.878,0,0,0-.312-.621h7.542a1,1,0,1,0,0-2h-9.5v-2.11a.5.5,0,0,1,.506-.493H120.53a.5.5,0,0,1,.506.493v2.249a4.985,4.985,0,0,0-2.268,2.484l-1.336,3.226a4.412,4.412,0,0,0,1.954,5.516,4.678,4.678,0,0,0,5.885-1.111l2.2-2.739A4.839,4.839,0,0,0,128.459,42.817ZM102.308,17.54a9.749,9.749,0,0,1,19.49,0,9.749,9.749,0,0,1-19.49,0Zm1.122,25.119,1.336,3.226a2.427,2.427,0,0,1-1.075,3.034,2.572,2.572,0,0,1-3.237-.611l-2.2-2.739a2.878,2.878,0,0,1-.586-2.371,2.942,2.942,0,0,1,1.454-1.985,3.091,3.091,0,0,1,2.494-.233A2.985,2.985,0,0,1,103.431,42.659Zm17.106-9.978a1.015,1.015,0,0,0-1.028,1v1h-14.9v-1a1.029,1.029,0,0,0-2.057,0v1.211a2.5,2.5,0,0,0-1.535,2.284v1.413A3.089,3.089,0,0,1,99,37.569a2.927,2.927,0,0,1-.708-2.39,10.631,10.631,0,0,1,6.86-8.329,12.037,12.037,0,0,0,13.808,0,10.631,10.631,0,0,1,6.86,8.329,2.927,2.927,0,0,1-.708,2.39,3.089,3.089,0,0,1-2.017,1.022V37.178a2.5,2.5,0,0,0-1.528-2.281V33.682A1.015,1.015,0,0,0,120.537,32.681Zm5.317,12.887-2.2,2.739a2.572,2.572,0,0,1-3.237.611,2.427,2.427,0,0,1-1.075-3.034l1.336-3.226a2.985,2.985,0,0,1,1.816-1.679,3.092,3.092,0,0,1,2.494.233A2.942,2.942,0,0,1,126.44,43.2,2.879,2.879,0,0,1,125.854,45.568Z" transform="translate(-95.555)" fill="#082032"/>
  </g>
</svg>
