<svg xmlns="http://www.w3.org/2000/svg" width="35.055" height="35.055" viewBox="0 0 35.055 35.055">
  <path id="Path_37" data-name="Path 37" d="M17.527,3.116a53.743,53.743,0,0,1,7.011.195,9.033,9.033,0,0,1,3.311.584A6.84,6.84,0,0,1,31.16,7.206a9.033,9.033,0,0,1,.584,3.311c0,1.753.195,2.337.195,7.011a53.743,53.743,0,0,1-.195,7.011,9.033,9.033,0,0,1-.584,3.311,6.84,6.84,0,0,1-3.311,3.311,9.033,9.033,0,0,1-3.311.584c-1.753,0-2.337.195-7.011.195a53.743,53.743,0,0,1-7.011-.195,9.033,9.033,0,0,1-3.311-.584,6.839,6.839,0,0,1-3.311-3.311,9.033,9.033,0,0,1-.584-3.311c0-1.753-.195-2.337-.195-7.011a53.743,53.743,0,0,1,.195-7.011,9.033,9.033,0,0,1,.584-3.311A6.994,6.994,0,0,1,5.258,5.258,3.293,3.293,0,0,1,7.206,3.895a9.033,9.033,0,0,1,3.311-.584,53.743,53.743,0,0,1,7.011-.195m0-3.116a57.543,57.543,0,0,0-7.206.195A12.023,12.023,0,0,0,6.037.974,7.624,7.624,0,0,0,2.921,2.921,7.624,7.624,0,0,0,.974,6.037a8.873,8.873,0,0,0-.779,4.284A57.543,57.543,0,0,0,0,17.527a57.543,57.543,0,0,0,.195,7.206,12.023,12.023,0,0,0,.779,4.284,7.624,7.624,0,0,0,1.947,3.116,7.624,7.624,0,0,0,3.116,1.947,12.023,12.023,0,0,0,4.284.779,57.544,57.544,0,0,0,7.206.195,57.544,57.544,0,0,0,7.206-.195,12.023,12.023,0,0,0,4.284-.779,8.171,8.171,0,0,0,5.063-5.063,12.023,12.023,0,0,0,.779-4.284c0-1.947.195-2.532.195-7.206a57.544,57.544,0,0,0-.195-7.206,12.023,12.023,0,0,0-.779-4.284,7.624,7.624,0,0,0-1.947-3.116A7.624,7.624,0,0,0,29.017.974,12.023,12.023,0,0,0,24.733.195,57.543,57.543,0,0,0,17.527,0m0,8.569a8.814,8.814,0,0,0-8.958,8.958,8.958,8.958,0,1,0,8.958-8.958m0,14.8a5.738,5.738,0,0,1-5.842-5.842,5.738,5.738,0,0,1,5.842-5.842,5.738,5.738,0,0,1,5.842,5.842,5.738,5.738,0,0,1-5.842,5.842M26.875,6.037a2.142,2.142,0,1,0,2.142,2.142,2.161,2.161,0,0,0-2.142-2.142" fill="#082032" fill-rule="evenodd"/>
</svg>
