<svg id="Group_57" data-name="Group 57" xmlns="http://www.w3.org/2000/svg" width="21" height="21.031" viewBox="0 0 21 21.031">
  <path id="Path_38" data-name="Path 38" d="M16.95,39.217a2.068,2.068,0,0,0-1.5-.688,2.139,2.139,0,0,0-1.518.684l-1.4,1.4c-.115-.062-.231-.12-.342-.178-.16-.08-.311-.155-.439-.235a15.245,15.245,0,0,1-3.653-3.329,8.994,8.994,0,0,1-1.2-1.891c.364-.333.7-.679,1.03-1.012.124-.124.249-.253.373-.377a2.036,2.036,0,0,0,0-3.072L7.087,29.306c-.138-.138-.28-.28-.413-.422-.266-.275-.546-.559-.834-.826a2.1,2.1,0,0,0-1.487-.652,2.174,2.174,0,0,0-1.509.652l-.009.009L1.326,29.59a3.247,3.247,0,0,0-.963,2.064,7.781,7.781,0,0,0,.568,3.293,19.111,19.111,0,0,0,3.4,5.664,20.888,20.888,0,0,0,6.955,5.446,10.837,10.837,0,0,0,3.906,1.154c.093,0,.191.009.28.009a3.345,3.345,0,0,0,2.561-1.1c0-.009.013-.013.018-.022a10.09,10.09,0,0,1,.777-.8c.191-.182.386-.373.577-.573a2.214,2.214,0,0,0,.67-1.536,2.133,2.133,0,0,0-.684-1.522Zm1.589,4.674s0,0,0,0c-.173.186-.351.355-.542.542a11.67,11.67,0,0,0-.857.888,2.14,2.14,0,0,1-1.669.706c-.067,0-.138,0-.2,0a9.627,9.627,0,0,1-3.462-1.039,19.717,19.717,0,0,1-6.551-5.131,18.02,18.02,0,0,1-3.2-5.322,6.338,6.338,0,0,1-.5-2.779,2.038,2.038,0,0,1,.613-1.318L3.687,28.92a1.009,1.009,0,0,1,.675-.315.949.949,0,0,1,.648.311l.013.013c.271.253.528.515.8.795.138.142.28.284.422.431l1.212,1.212a.847.847,0,0,1,0,1.376c-.129.129-.253.257-.382.382-.373.382-.728.737-1.114,1.083-.009.009-.018.013-.022.022a.905.905,0,0,0-.231,1.008l.013.04a9.728,9.728,0,0,0,1.434,2.339l0,0A16.291,16.291,0,0,0,11.1,41.206a6.06,6.06,0,0,0,.546.3c.16.08.311.155.439.235.018.009.036.022.053.031a.962.962,0,0,0,.439.111.949.949,0,0,0,.675-.306l1.518-1.518a1,1,0,0,1,.67-.333.9.9,0,0,1,.639.324l.009.009L18.535,42.5A.878.878,0,0,1,18.539,43.891Z" transform="translate(-0.344 -26.19)"/>
  <path id="Path_39" data-name="Path 39" d="M245.437,87.114a5.713,5.713,0,0,1,4.652,4.652.6.6,0,0,0,.59.5.793.793,0,0,0,.1-.009.6.6,0,0,0,.493-.692,6.907,6.907,0,0,0-5.628-5.628.6.6,0,0,0-.692.488A.593.593,0,0,0,245.437,87.114Z" transform="translate(-234.087 -82.111)"/>
  <path id="Path_40" data-name="Path 40" d="M258.739,9.277A11.374,11.374,0,0,0,249.471.009a.6.6,0,1,0-.2,1.181,10.159,10.159,0,0,1,8.283,8.283.6.6,0,0,0,.59.5.792.792,0,0,0,.1-.009A.588.588,0,0,0,258.739,9.277Z" transform="translate(-237.748 0)"/>
</svg>
